<svg xmlns="http://www.w3.org/2000/svg" width="156" height="25" viewBox="0 0 156 25" fill="#ef3123"><path d="M18.5529 11.6016C18.479 13.814 18.1859 14.258 16.9131 14.258V17.041H17.3884C20.5625 17.041 21.3256 15.4378 21.4418 11.8752L21.5712 7.93319H24.5473V17.041H27.6527V5.1709H18.7668L18.5529 11.6016Z" fill="#ef3123"/><path d="M35.0944 8.77736H32.8525V5.1709H29.7471V17.041H35.1393C38.5246 17.041 39.7341 14.8905 39.7341 12.8666C39.7314 10.2514 38.0493 8.77736 35.0944 8.77736ZM34.8568 14.4258H32.8499V11.4106H34.8568C35.9341 11.4106 36.5811 11.8752 36.5811 12.8666C36.5838 13.9431 35.9579 14.4258 34.8568 14.4258Z" fill="#ef3123"/><path d="M49.8426 4.89722V0.490479H46.7372V4.89722C43.1776 5.19152 40.7852 7.65951 40.7852 11.0956C40.7852 14.5523 43.1802 17.0203 46.7372 17.3146V21.7833H49.8426V17.3146C53.4023 17.0409 55.7947 14.5523 55.7947 11.0956C55.7947 7.63886 53.3996 5.17087 49.8426 4.89722ZM46.7372 14.449C45.0129 14.2167 43.9328 12.9517 43.9328 11.0956C43.9328 9.23943 45.0102 7.97446 46.7372 7.74212V14.449ZM49.8426 14.449V7.7447C51.567 7.97704 52.647 9.24201 52.647 11.0982C52.647 12.9517 51.567 14.2167 49.8426 14.449Z" fill="#ef3123"/><path d="M67.4821 13.3932V9.40728C67.4821 6.49785 65.5835 4.66235 62.3936 4.66235C59.0927 4.66235 57.3473 6.60111 57.1967 8.62507H60.3444C60.4527 8.18104 60.928 7.42205 62.3936 7.42205C63.6004 7.42205 64.3767 7.96935 64.3767 9.4047H61.2924C58.5329 9.4047 56.8931 10.8168 56.8931 13.179C56.8931 15.6469 58.6861 17.3327 61.2713 17.3327C63.1673 17.3327 64.2183 16.4576 64.6777 15.7941C65.0871 16.5944 65.9928 17.0384 67.1785 17.0384H68.2558V14.2968C67.696 14.2994 67.4821 14.0464 67.4821 13.3932ZM64.3741 12.6136C64.3741 13.9844 63.3812 14.764 62.0873 14.764C60.965 14.764 60.0804 14.3639 60.0804 13.1815C60.0804 12.0224 61.0495 11.8314 61.8918 11.8314H64.3714V12.6136H64.3741Z" fill="#ef3123"/><path d="M11.3415 2.76232C10.8688 1.38117 10.3222 0.291748 8.45262 0.291748C6.58303 0.291748 6.00209 1.37859 5.503 2.76232C0.364264 17.041 0.364258 17.041 0.364258 17.041H3.77072L4.95638 13.6462H11.5131L12.6143 17.041H16.2373C16.2373 17.041 16.2373 17.041 11.3415 2.76232ZM5.94928 10.7807L8.27833 4.0118H8.36548L10.5652 10.7807H5.94928Z" fill="#ef3123"/><path d="M16.6019 21.6284H0V25H16.6019V21.6284Z" fill="#ef3123"/><path d="M140.285 10.822L145.527 5.1709H141.624L137.331 9.87195V5.1709H134.225V17.041H137.331V12.0456L141.925 17.041H145.936L140.285 10.822Z" fill="#ef3123"/><path d="M127.209 17.3921C123.625 17.3921 121.22 14.8492 121.22 11.0621C121.22 7.27749 123.533 4.73206 126.976 4.73206C130.446 4.73206 132.688 7.20779 132.688 11.0388V11.6868H124.505C124.65 13.4836 125.677 14.5911 127.209 14.5911C128.793 14.5911 129.424 13.4552 129.424 13.4552C129.424 13.4552 131.777 13.4552 132.577 13.4552C132.392 14.9473 131.03 17.3921 127.209 17.3921ZM129.361 9.54669C129.195 8.61991 128.616 7.32654 126.976 7.32654C125.561 7.32654 124.795 8.23525 124.544 9.54669H129.361Z" fill="#ef3123"/><path d="M150.684 17.3921C147.323 17.3921 144.941 14.6737 144.941 11.0053C144.941 7.3369 147.315 4.72693 150.661 4.72693C154.754 4.72693 155.871 7.74221 155.995 8.90391L156 8.95554H152.94L152.926 8.92715C152.741 8.48828 152.25 7.46856 150.729 7.46856C149.169 7.46856 148.176 8.85745 148.176 11.0027C148.176 13.117 149.203 14.6479 150.753 14.6479C151.83 14.6479 152.522 14.1419 152.95 13.1893L152.963 13.1609H155.997L155.992 13.2126C155.884 14.3769 154.796 17.3921 150.684 17.3921Z" fill="#ef3123"/><path d="M115.043 4.72693C112.941 4.72693 112.012 6.06418 111.666 6.62697V5.17354H108.55V21.8221H111.666V15.6676C112.115 16.3311 113.092 17.3973 115.043 17.3973C118.117 17.3973 119.987 14.9138 119.987 11.217C119.987 7.49954 118.117 4.72693 115.043 4.72693ZM116.775 11.0569C116.775 13.1403 115.862 14.6918 114.214 14.6918C112.566 14.6918 111.618 13.1377 111.618 11.0569C111.618 8.94264 112.54 7.45049 114.214 7.45049C115.888 7.45049 116.775 8.94005 116.775 11.0569Z" fill="#ef3123"/><path d="M101.225 4.72168C97.5227 4.72168 95.2993 7.33165 95.2993 11.1214C95.2993 14.9111 97.5465 17.3946 101.225 17.3946C104.903 17.3946 107.151 14.9111 107.151 11.1214C107.151 7.33165 104.925 4.72168 101.225 4.72168ZM101.225 14.6194C99.6062 14.6194 98.4866 13.2848 98.4866 11.1188C98.4866 8.88576 99.5296 7.49171 101.225 7.49171C102.92 7.49171 103.961 8.88834 103.961 11.1188C103.961 13.2848 102.841 14.6194 101.225 14.6194Z" fill="#ef3123"/><path d="M87.2685 11.5551H85.5785V5.0444H87.2685C89.9541 5.0444 91.1028 6.47459 91.1028 8.35139C91.1054 10.0888 89.8485 11.5551 87.2685 11.5551ZM85.5785 17.041V14.4852H87.4798C92.0825 14.4852 94.4881 11.6222 94.4881 8.24813C94.4881 4.87401 91.9425 2.14787 87.4798 2.14787H85.5785V0H82.2328V2.14787H80.3315C75.8688 2.14787 73.3232 4.87401 73.3232 8.24813C73.3232 11.6222 75.7288 14.4852 80.3315 14.4852H82.2328V17.041H85.5785ZM80.5401 11.5551C77.9602 11.5551 76.7059 10.0888 76.7059 8.35139C76.7059 6.47717 77.8572 5.0444 80.5401 5.0444H82.2302V11.5551H80.5401Z" fill="#ef3123"/></svg>
